<svg width="1440" height="1024" viewBox="0 0 1440 1024" fill="none" xmlns="http://www.w3.org/2000/svg">
<g clip-path="url(#clip0)">
<rect width="1440" height="1024" fill="white"/>
<path opacity="0.5" d="M2109.34 47.5974C2221.3 -57.6269 2230.13 -244.463 2302.43 -386.234C2327.6 -435.566 2361.07 -480.371 2377 -534.381C2413.59 -658.014 2348.05 -791.849 2264.69 -883.318C2224.94 -926.954 2179.09 -966.367 2125.19 -982.537C2083.74 -994.972 2040.06 -992.981 1997.19 -990.805L1246.12 -953.642C1162.26 -949.48 1069.29 -940.837 1012.27 -872.328C972.966 -825.154 959.354 -758.879 948.148 -695.727C934.378 -618.127 922.588 -534.043 953.6 -462.773C989.032 -381.229 1070.46 -338.688 1123.17 -269.649C1208.71 -157.802 1215.69 18.6888 1321.85 105.712C1371.41 146.327 1434.79 159.626 1496.15 164.5C1611.83 173.712 1719.12 136.842 1832.14 134.327C1928.75 132.173 2032.71 119.636 2109.34 47.5974Z" fill="url(#paint0_linear)" fill-opacity="0.5"/>
<path opacity="0.5" d="M1337.15 385.659C1488.7 410.916 1642.65 304.685 1799.23 276.251C1853.72 266.365 1909.65 265.824 1962.26 245.756C2082.77 199.919 2149.48 66.659 2171.7 -55.0818C2182.32 -113.146 2185.87 -173.504 2166.06 -226.175C2150.82 -266.68 2122.76 -300.212 2095.04 -332.988L1610.2 -907.818C1556.06 -971.989 1492.83 -1040.69 1403.78 -1044.52C1342.44 -1047.18 1281.48 -1017.83 1224.46 -988.462C1154.39 -952.375 1080.37 -910.783 1042.48 -842.916C999.108 -765.306 1014.63 -674.756 991.676 -590.983C954.571 -455.154 818.431 -342.621 813.57 -205.436C811.309 -141.401 839.153 -82.9289 872.47 -31.1741C935.263 66.4118 1029.63 129.398 1100.14 217.763C1160.41 293.294 1233.4 368.375 1337.15 385.659Z" fill="url(#paint1_linear)" fill-opacity="0.1"/>
<path opacity="0.5" d="M1356.44 235.212C1509.84 226.458 1636.6 88.9185 1783.07 26.684C1834.04 5.03541 1888.47 -7.81348 1935.37 -38.9806C2042.82 -110.243 2078.53 -254.926 2073.39 -378.571C2070.94 -437.547 2061.11 -497.204 2030.18 -544.215C2006.4 -580.368 1971.64 -606.894 1937.38 -632.758L1337.81 -1086.64C1270.86 -1137.31 1194.04 -1190.39 1106.34 -1174.5C1045.91 -1163.58 992.917 -1121.52 943.769 -1080.31C883.377 -1029.68 820.338 -972.797 798.337 -898.251C773.125 -812.991 808.219 -728.087 804.284 -641.314C798.017 -500.648 690.017 -360.885 715.5 -226.001C727.403 -163.041 767.446 -112.141 811.346 -68.998C894.097 12.355 1000.02 53.0026 1088.27 123.662C1163.7 184.056 1251.44 241.211 1356.44 235.212Z" fill="url(#paint2_linear)" fill-opacity="0.2"/>
<path opacity="0.5" d="M233.918 221.909C260.887 70.6525 156.404 -84.4898 129.742 -241.383C120.473 -295.984 120.564 -351.909 101.092 -404.746C56.6204 -525.768 -75.8764 -593.981 -197.358 -617.578C-255.299 -628.844 -315.612 -633.079 -368.504 -613.864C-409.179 -599.087 -443.026 -571.407 -476.113 -544.063L-1056.39 -65.7562C-1121.17 -12.3437 -1190.58 50.1076 -1195.41 139.11C-1198.77 200.418 -1170.11 261.707 -1141.39 319.056C-1106.1 389.524 -1065.34 464.012 -997.911 502.661C-920.796 546.913 -830.077 532.413 -746.568 556.315C-611.167 594.954 -500.181 732.357 -363.06 738.769C-299.054 741.755 -240.271 714.573 -188.143 681.844C-89.8533 620.158 -25.8045 526.513 63.3527 457.007C139.56 397.59 215.461 325.457 233.918 221.909Z" fill="url(#paint3_linear)" fill-opacity="0.1"/>
<path opacity="0.5" d="M469.004 -27.0543C535.954 -165.342 477.423 -342.994 494.276 -501.241C500.151 -556.311 515.394 -610.118 510.969 -666.255C500.958 -794.8 391.905 -896.367 281.363 -952.001C228.644 -978.548 171.735 -998.969 115.615 -994.806C72.4581 -991.605 32.3758 -974.133 -6.8828 -956.779L-695.064 -653.622C-771.894 -619.763 -855.637 -578.46 -884.404 -494.097C-904.248 -435.992 -893.273 -369.231 -881.166 -306.244C-866.291 -228.849 -847.25 -146.105 -792.813 -90.627C-730.576 -27.1334 -639.321 -16.5068 -565.415 29.1317C-445.552 103.018 -375.954 265.356 -245.702 308.687C-184.9 328.906 -120.951 318.672 -61.9038 301.294C49.4246 268.552 136.454 195.769 241.111 153.024C330.569 116.482 423.177 67.6174 469.004 -27.0543Z" fill="url(#paint4_linear)" fill-opacity="0.2"/>
<path opacity="0.5" d="M137.201 -555.743C159.412 -403.715 307.568 -289.54 382.443 -149.112C408.491 -100.239 426.078 -47.1506 461.249 -3.17468C541.686 97.5925 688.949 120.44 811.662 104.438C870.194 96.8171 928.755 81.7754 972.864 46.83C1006.78 19.957 1030.15 -17.0008 1052.9 -53.399L1452.29 -690.569C1496.87 -761.715 1543 -842.902 1519.45 -928.87C1503.26 -988.096 1456.71 -1037.19 1411.33 -1082.52C1355.58 -1138.23 1293.38 -1196.02 1217.18 -1211.38C1130.04 -1228.99 1048.55 -1186.57 961.766 -1182.86C821.094 -1176.73 672.374 -1272.02 540.254 -1234.77C478.584 -1217.37 431.403 -1173.01 392.289 -1125.48C318.53 -1035.9 287.356 -926.813 224.732 -832.693C171.206 -752.239 121.989 -659.817 137.201 -555.743Z" fill="url(#paint5_linear)" fill-opacity="0.2"/>
</g>
<defs>
<linearGradient id="paint0_linear" x1="1825.56" y1="514.989" x2="1757.73" y2="-618.908" gradientUnits="userSpaceOnUse">
<stop stop-color="#002263"/>
<stop offset="1" stop-color="#C9CEFF"/>
</linearGradient>
<linearGradient id="paint1_linear" x1="1000.55" y1="124.816" x2="1861.26" y2="-616.468" gradientUnits="userSpaceOnUse">
<stop stop-color="#0F006C"/>
<stop offset="1" stop-color="#C9CEFF"/>
</linearGradient>
<linearGradient id="paint2_linear" x1="1066.29" y1="137.956" x2="1742.53" y2="-774.748" gradientUnits="userSpaceOnUse">
<stop stop-color="#003C74"/>
<stop offset="1" stop-color="#C9CEFF"/>
</linearGradient>
<linearGradient id="paint3_linear" x1="-30.7142" y1="555.532" x2="-762.219" y2="-313.504" gradientUnits="userSpaceOnUse">
<stop stop-color="#0085FF"/>
<stop offset="1" stop-color="#C9CEFF"/>
</linearGradient>
<linearGradient id="paint4_linear" x1="123.864" y1="222.371" x2="-344.763" y2="-812.381" gradientUnits="userSpaceOnUse">
<stop stop-color="#003C74"/>
<stop offset="1" stop-color="#C9CEFF"/>
</linearGradient>
<linearGradient id="paint5_linear" x1="282.844" y1="-955.896" x2="1251.49" y2="-362.555" gradientUnits="userSpaceOnUse">
<stop stop-color="#002E73"/>
<stop offset="1" stop-color="#C9CEFF"/>
</linearGradient>
<clipPath id="clip0">
<rect width="1440" height="1024" fill="white"/>
</clipPath>
</defs>
</svg>
