<svg width="1440" height="1024" viewBox="0 0 1440 1024" fill="none" xmlns="http://www.w3.org/2000/svg">
<g clip-path="url(#clip0)">
<rect width="1440" height="1024" fill="white"/>
<path opacity="0.5" d="M-540.413 1270.24C-545.09 1406.27 -437.129 1536.22 -395.36 1673.36C-380.832 1721.08 -374.131 1770.66 -351.111 1816.09C-298.493 1920.14 -177.165 1971.01 -70.6449 1983.13C-19.8387 1988.92 32.14 1988.31 74.9433 1967.45C107.859 1951.41 133.386 1924.42 158.305 1897.79L595.473 1431.81C644.275 1379.78 695.937 1319.4 689.269 1240.16C684.7 1185.57 652.818 1133.32 621.358 1084.57C582.701 1024.66 538.898 961.586 476.672 932.209C405.506 898.568 329.852 917.988 255.697 902.847C135.477 878.4 24.1162 764.642 -93.6656 768.885C-148.644 770.873 -195.508 799.222 -236.022 832.006C-312.415 893.799 -355.716 981.442 -423.368 1049.51C-481.193 1107.69 -537.216 1177.12 -540.413 1270.24Z" fill="url(#paint0_linear)" fill-opacity="0.5"/>
<path opacity="0.5" d="M1221.47 2111.29C1370.34 2149.3 1532.74 2056.49 1691.16 2041.41C1746.3 2036.18 1802.06 2040.38 1856.19 2024.84C1980.15 1989.37 2057.91 1862.24 2090.36 1742.82C2105.85 1685.86 2114.5 1626.02 2099.22 1571.86C2087.47 1530.21 2062.35 1494.42 2037.51 1459.42L1603.1 845.591C1554.59 777.064 1497.4 703.25 1408.99 691.9C1348.1 684.052 1284.87 708.131 1225.57 732.565C1152.7 762.588 1075.42 797.762 1031.92 862.176C982.129 935.833 989.93 1027.37 959.96 1108.9C911.484 1241.1 766.302 1341.7 749.84 1477.98C742.163 1541.59 764.955 1602.21 793.769 1656.6C848.071 1759.16 936.761 1829.91 999.533 1923.93C1053.19 2004.29 1119.56 2085.28 1221.47 2111.29Z" fill="url(#paint1_linear)" fill-opacity="0.2"/>
<path opacity="0.5" d="M2109.34 47.5974C2221.3 -57.6269 2230.13 -244.463 2302.43 -386.234C2327.6 -435.566 2361.07 -480.371 2377 -534.381C2413.59 -658.014 2348.05 -791.849 2264.69 -883.318C2224.94 -926.954 2179.09 -966.367 2125.19 -982.537C2083.74 -994.972 2040.06 -992.981 1997.19 -990.805L1246.12 -953.642C1162.26 -949.48 1069.29 -940.837 1012.27 -872.328C972.966 -825.154 959.354 -758.879 948.148 -695.727C934.378 -618.127 922.588 -534.043 953.6 -462.773C989.032 -381.229 1070.46 -338.688 1123.17 -269.649C1208.71 -157.802 1215.69 18.6888 1321.85 105.712C1371.41 146.327 1434.79 159.626 1496.15 164.5C1611.83 173.712 1719.12 136.842 1832.14 134.327C1928.75 132.173 2032.71 119.636 2109.34 47.5974Z" fill="url(#paint2_linear)" fill-opacity="0.5"/>
<path opacity="0.5" d="M-709.548 874.622C-774.276 1014.69 -712.901 1194.22 -727.215 1354.34C-732.207 1410.06 -746.586 1464.53 -741.261 1521.3C-729.19 1651.3 -618.516 1753.72 -507.09 1809.68C-453.949 1836.39 -396.716 1856.88 -340.667 1852.51C-297.564 1849.15 -257.765 1831.36 -218.788 1813.7L464.484 1505.09C540.766 1470.62 623.841 1428.61 651.253 1343.19C670.164 1284.36 658.119 1216.86 645.003 1153.18C628.889 1074.94 608.521 991.297 553.199 935.336C489.948 871.288 398.53 860.799 323.897 814.846C202.858 740.45 130.662 576.441 -0.275953 532.981C-61.3978 512.703 -125.178 523.237 -183.943 540.983C-294.738 574.418 -380.594 648.288 -484.559 691.822C-573.424 729.039 -665.243 778.73 -709.548 874.622Z" fill="url(#paint3_linear)" fill-opacity="0.3"/>
<path opacity="0.5" d="M1605.37 1594.49C1605.12 1440.84 1474.81 1306.66 1420.78 1156.97C1401.98 1104.88 1392.17 1049.82 1363.64 1001.27C1298.44 890.039 1155.95 846.375 1032.21 844.671C973.191 843.846 913.081 850.362 864.43 878.643C827.016 900.391 798.607 933.629 770.887 966.401L284.515 1539.93C230.221 1603.98 172.966 1677.74 183.979 1766.19C191.537 1827.12 230.597 1882.36 269.024 1933.72C316.241 1996.82 369.544 2062.91 442.758 2089C526.491 2118.9 613.208 2088.55 699.63 2097.29C839.734 2111.33 973.305 2226.9 1109.39 2208.92C1172.92 2200.52 1225.95 2163.36 1271.46 2121.91C1357.27 2043.79 1403.72 1940.28 1479.15 1856.08C1543.63 1784.1 1605.55 1699.67 1605.37 1594.49Z" fill="url(#paint4_linear)" fill-opacity="0.2"/>
<path opacity="0.5" d="M969.737 828.101C823.157 874.145 733.927 1038.53 607.153 1134.74C563.029 1168.21 513.403 1193.99 475.562 1235.69C388.829 1331.09 389.628 1480.12 424.892 1598.74C441.699 1655.32 465.839 1710.75 507.338 1748.76C539.251 1777.99 579.448 1795.2 618.993 1811.89L1311.44 2105.16C1388.76 2137.89 1476.24 2170.55 1557.38 2133.67C1613.29 2108.29 1654.38 2054.54 1691.94 2002.55C1738.1 1938.67 1785.29 1868.09 1788.37 1790.42C1791.94 1701.58 1737.13 1627.86 1719.7 1542.76C1691.33 1404.84 1761.83 1242.89 1704.1 1118.35C1677.14 1060.22 1625.85 1020.67 1572.73 989.593C1472.58 930.977 1359.93 917.5 1257.07 870.597C1169.14 830.51 1070.08 796.575 969.737 828.101Z" fill="url(#paint5_linear)" fill-opacity="0.3"/>
<path opacity="0.5" d="M-498.852 541.659C-347.3 566.916 -193.35 460.685 -36.7677 432.251C17.7248 422.365 73.6473 421.824 126.261 401.756C246.772 355.919 313.483 222.659 335.704 100.918C346.315 42.8539 349.868 -17.5036 330.055 -70.1748C314.819 -110.68 286.759 -144.212 259.042 -176.988L-225.795 -751.818C-279.937 -815.989 -343.169 -884.695 -432.221 -888.517C-493.563 -891.179 -554.524 -861.831 -611.544 -832.462C-681.609 -796.375 -755.631 -754.783 -793.516 -686.916C-836.893 -609.306 -821.367 -518.756 -844.324 -434.983C-881.429 -299.154 -1017.57 -186.621 -1022.43 -49.4363C-1024.69 14.5994 -996.847 73.0711 -963.53 124.826C-900.737 222.412 -806.374 285.398 -735.864 373.763C-675.588 449.294 -602.602 524.375 -498.852 541.659Z" fill="url(#paint6_linear)" fill-opacity="0.5"/>
<path opacity="0.5" d="M1337.15 385.659C1488.7 410.916 1642.65 304.685 1799.23 276.251C1853.72 266.365 1909.65 265.824 1962.26 245.756C2082.77 199.919 2149.48 66.659 2171.7 -55.0818C2182.32 -113.146 2185.87 -173.504 2166.06 -226.175C2150.82 -266.68 2122.76 -300.212 2095.04 -332.988L1610.2 -907.818C1556.06 -971.989 1492.83 -1040.69 1403.78 -1044.52C1342.44 -1047.18 1281.48 -1017.83 1224.46 -988.462C1154.39 -952.375 1080.37 -910.783 1042.48 -842.916C999.108 -765.306 1014.63 -674.756 991.676 -590.983C954.571 -455.154 818.431 -342.621 813.57 -205.436C811.309 -141.401 839.153 -82.9289 872.47 -31.1741C935.263 66.4118 1029.63 129.398 1100.14 217.763C1160.41 293.294 1233.4 368.375 1337.15 385.659Z" fill="url(#paint7_linear)" fill-opacity="0.1"/>
<path opacity="0.5" d="M1356.44 235.212C1509.84 226.458 1636.6 88.9185 1783.07 26.684C1834.04 5.03541 1888.47 -7.81348 1935.37 -38.9806C2042.82 -110.243 2078.53 -254.926 2073.39 -378.571C2070.94 -437.547 2061.11 -497.204 2030.18 -544.215C2006.4 -580.368 1971.64 -606.894 1937.38 -632.758L1337.81 -1086.64C1270.86 -1137.31 1194.04 -1190.39 1106.34 -1174.5C1045.91 -1163.58 992.917 -1121.52 943.769 -1080.31C883.377 -1029.68 820.338 -972.797 798.337 -898.251C773.125 -812.991 808.219 -728.087 804.284 -641.314C798.017 -500.648 690.017 -360.885 715.5 -226.001C727.403 -163.041 767.446 -112.141 811.346 -68.998C894.097 12.355 1000.02 53.0026 1088.27 123.662C1163.7 184.056 1251.44 241.211 1356.44 235.212Z" fill="url(#paint8_linear)" fill-opacity="0.2"/>
<path opacity="0.5" d="M390.201 1563.26C412.412 1715.29 560.568 1829.46 635.443 1969.89C661.491 2018.76 679.078 2071.85 714.249 2115.83C794.686 2216.59 941.949 2239.44 1064.66 2223.44C1123.19 2215.82 1181.76 2200.78 1225.86 2165.83C1259.78 2138.96 1283.15 2102 1305.9 2065.6L1705.29 1428.43C1749.87 1357.29 1796 1276.1 1772.45 1190.13C1756.26 1130.9 1709.71 1081.81 1664.33 1036.48C1608.58 980.773 1546.38 922.981 1470.18 907.621C1383.04 890.006 1301.55 932.432 1214.77 936.144C1074.09 942.273 925.374 846.984 793.254 884.232C731.584 901.626 684.403 945.991 645.289 993.516C571.53 1083.1 540.356 1192.19 477.732 1286.31C424.206 1366.76 374.989 1459.18 390.201 1563.26Z" fill="url(#paint9_linear)" fill-opacity="0.2"/>
<path opacity="0.5" d="M239.918 626.909C266.887 475.652 162.404 320.51 135.742 163.617C126.473 109.016 126.564 53.0911 107.092 0.254189C62.6204 -120.768 -69.8764 -188.981 -191.358 -212.578C-249.299 -223.844 -309.612 -228.079 -362.504 -208.864C-403.179 -194.087 -437.026 -166.407 -470.113 -139.063L-1050.39 339.244C-1115.17 392.656 -1184.58 455.108 -1189.41 544.11C-1192.77 605.418 -1164.11 666.707 -1135.39 724.056C-1100.1 794.524 -1059.34 869.012 -991.911 907.661C-914.796 951.913 -824.077 937.413 -740.568 961.315C-605.167 999.954 -494.181 1137.36 -357.06 1143.77C-293.054 1146.75 -234.271 1119.57 -182.143 1086.84C-83.8533 1025.16 -19.8045 931.513 69.3527 862.007C145.56 802.59 221.461 730.457 239.918 626.909Z" fill="url(#paint10_linear)" fill-opacity="0.1"/>
<path opacity="0.5" d="M469.004 -27.0543C535.954 -165.342 477.423 -342.994 494.276 -501.241C500.151 -556.311 515.394 -610.118 510.969 -666.255C500.958 -794.8 391.905 -896.367 281.363 -952.001C228.644 -978.548 171.735 -998.969 115.615 -994.806C72.4581 -991.605 32.3758 -974.133 -6.8828 -956.779L-695.064 -653.622C-771.894 -619.763 -855.637 -578.46 -884.404 -494.097C-904.248 -435.992 -893.273 -369.231 -881.166 -306.244C-866.291 -228.849 -847.25 -146.105 -792.813 -90.627C-730.576 -27.1334 -639.321 -16.5068 -565.415 29.1317C-445.552 103.018 -375.954 265.356 -245.702 308.687C-184.9 328.906 -120.951 318.672 -61.9038 301.294C49.4246 268.552 136.454 195.769 241.111 153.024C330.569 116.482 423.177 67.6174 469.004 -27.0543Z" fill="url(#paint11_linear)" fill-opacity="0.2"/>
<path opacity="0.5" d="M137.201 -555.743C159.412 -403.715 307.568 -289.54 382.443 -149.112C408.491 -100.239 426.078 -47.1506 461.249 -3.17468C541.686 97.5925 688.949 120.44 811.662 104.438C870.194 96.8171 928.755 81.7754 972.864 46.83C1006.78 19.957 1030.15 -17.0008 1052.9 -53.399L1452.29 -690.569C1496.87 -761.715 1543 -842.902 1519.45 -928.87C1503.26 -988.096 1456.71 -1037.19 1411.33 -1082.52C1355.58 -1138.23 1293.38 -1196.02 1217.18 -1211.38C1130.04 -1228.99 1048.55 -1186.57 961.766 -1182.86C821.094 -1176.73 672.374 -1272.02 540.254 -1234.77C478.584 -1217.37 431.403 -1173.01 392.289 -1125.48C318.53 -1035.9 287.356 -926.813 224.732 -832.693C171.206 -752.239 121.989 -659.817 137.201 -555.743Z" fill="url(#paint12_linear)" fill-opacity="0.2"/>
<path opacity="0.5" d="M1652.47 1389.29C1801.34 1427.3 1963.74 1334.49 2122.16 1319.42C2177.3 1314.18 2233.06 1318.38 2287.19 1302.84C2411.15 1267.37 2488.91 1140.24 2521.36 1020.82C2536.85 963.863 2545.5 904.023 2530.22 849.863C2518.47 808.213 2493.35 772.425 2468.51 737.42L2034.1 123.591C1985.59 55.0647 1928.4 -18.7496 1839.99 -30.1C1779.1 -37.9478 1715.87 -13.8684 1656.57 10.5657C1583.7 40.5886 1506.42 75.762 1462.92 140.176C1413.13 213.833 1420.93 305.373 1390.96 386.901C1342.48 519.099 1197.3 619.698 1180.84 755.977C1173.16 819.592 1195.96 880.211 1224.77 934.602C1279.07 1037.16 1367.76 1107.91 1430.53 1201.93C1484.19 1282.29 1550.56 1363.28 1652.47 1389.29Z" fill="url(#paint13_linear)" fill-opacity="0.5"/>
</g>
<defs>
<linearGradient id="paint0_linear" x1="-875.099" y1="854.064" x2="-121.779" y2="1545.5" gradientUnits="userSpaceOnUse">
<stop stop-color="#001253"/>
<stop offset="1" stop-color="#8085FF"/>
</linearGradient>
<linearGradient id="paint1_linear" x1="908.181" y1="1822.88" x2="1828.58" y2="1157.16" gradientUnits="userSpaceOnUse">
<stop stop-color="#000576"/>
<stop offset="1" stop-color="#C9CEFF"/>
</linearGradient>
<linearGradient id="paint2_linear" x1="1825.56" y1="514.989" x2="1757.73" y2="-618.908" gradientUnits="userSpaceOnUse">
<stop stop-color="#002263"/>
<stop offset="1" stop-color="#C9CEFF"/>
</linearGradient>
<linearGradient id="paint3_linear" x1="-368.432" y1="621.343" x2="116.932" y2="1666.59" gradientUnits="userSpaceOnUse">
<stop stop-color="#0F042F"/>
<stop offset="1" stop-color="#C9CEFF"/>
</linearGradient>
<linearGradient id="paint4_linear" x1="1404.02" y1="1969.71" x2="530.147" y2="1243.99" gradientUnits="userSpaceOnUse">
<stop stop-color="#000576"/>
<stop offset="1" stop-color="#C9CEFF"/>
</linearGradient>
<linearGradient id="paint5_linear" x1="1387.93" y1="908.432" x2="955.734" y2="1958.92" gradientUnits="userSpaceOnUse">
<stop stop-color="#0F042F"/>
<stop offset="1" stop-color="#C9CEFF"/>
</linearGradient>
<linearGradient id="paint6_linear" x1="-835.446" y1="280.816" x2="25.2632" y2="-460.468" gradientUnits="userSpaceOnUse">
<stop stop-color="#0F006C"/>
<stop offset="1" stop-color="#C9CEFF"/>
</linearGradient>
<linearGradient id="paint7_linear" x1="1000.55" y1="124.816" x2="1861.26" y2="-616.468" gradientUnits="userSpaceOnUse">
<stop stop-color="#0F006C"/>
<stop offset="1" stop-color="#C9CEFF"/>
</linearGradient>
<linearGradient id="paint8_linear" x1="1066.29" y1="137.956" x2="1742.53" y2="-774.748" gradientUnits="userSpaceOnUse">
<stop stop-color="#003C74"/>
<stop offset="1" stop-color="#C9CEFF"/>
</linearGradient>
<linearGradient id="paint9_linear" x1="535.844" y1="1163.1" x2="1504.49" y2="1756.44" gradientUnits="userSpaceOnUse">
<stop stop-color="#003C74"/>
<stop offset="1" stop-color="#C9CEFF"/>
</linearGradient>
<linearGradient id="paint10_linear" x1="-24.7142" y1="960.532" x2="-756.219" y2="91.4956" gradientUnits="userSpaceOnUse">
<stop stop-color="#0085FF"/>
<stop offset="1" stop-color="#C9CEFF"/>
</linearGradient>
<linearGradient id="paint11_linear" x1="123.864" y1="222.371" x2="-344.763" y2="-812.381" gradientUnits="userSpaceOnUse">
<stop stop-color="#003C74"/>
<stop offset="1" stop-color="#C9CEFF"/>
</linearGradient>
<linearGradient id="paint12_linear" x1="282.844" y1="-955.896" x2="1251.49" y2="-362.555" gradientUnits="userSpaceOnUse">
<stop stop-color="#002E73"/>
<stop offset="1" stop-color="#C9CEFF"/>
</linearGradient>
<linearGradient id="paint13_linear" x1="1339.18" y1="1100.88" x2="2259.58" y2="435.158" gradientUnits="userSpaceOnUse">
<stop stop-color="#2650A2" stop-opacity="0.3"/>
<stop offset="1" stop-color="#C9CEFF"/>
</linearGradient>
<clipPath id="clip0">
<rect width="1440" height="1024" fill="white"/>
</clipPath>
</defs>
</svg>
