<svg width="105" height="60" viewBox="0 0 111 66" fill="none" xmlns="http://www.w3.org/2000/svg">
<path d="M40.6484 25.7812L44.75 36.6797L48.8418 25.7812H52.0352V40H49.5742V35.3125L49.8184 29.043L45.6191 40H43.8516L39.6621 29.0527L39.9062 35.3125V40H37.4453V25.7812H40.6484ZM58.4355 34.7168V40H55.9648V25.7812H61.4043C62.9928 25.7812 64.2526 26.1947 65.1836 27.0215C66.1211 27.8483 66.5898 28.9421 66.5898 30.3027C66.5898 31.696 66.1309 32.7799 65.2129 33.5547C64.3014 34.3294 63.0221 34.7168 61.375 34.7168H58.4355ZM58.4355 32.7344H61.4043C62.2832 32.7344 62.9538 32.5293 63.416 32.1191C63.8783 31.7025 64.1094 31.1035 64.1094 30.3223C64.1094 29.554 63.875 28.9421 63.4062 28.4863C62.9375 28.0241 62.293 27.7865 61.4727 27.7734H58.4355V32.7344ZM72.2285 38.0273H78.6836V40H69.7578V25.7812H72.2285V38.0273ZM84.1855 40H81.7246V25.7812H84.1855V40ZM96.416 33.9746H90.6934V40H88.2227V25.7812H97.2559V27.7734H90.6934V32.002H96.416V33.9746ZM104.857 32.5195L108.129 25.7812H110.863L106.098 34.7656V40H103.617V34.7656L98.8418 25.7812H101.586L104.857 32.5195Z" fill="white"/>
<path d="M15.9363 19.873L4.39844 39.0603H7.08848L15.9363 24.127L25.1666 39.0603H27.6144L15.9363 19.873Z" fill="url(#paint0_linear)"/>
<path d="M0.382324 39.9999L15.8724 14.692L31.5026 39.9999H29.6158L15.8724 17.4349L2.25643 39.9999H0.382324Z" fill="white"/>
<path d="M16 8C16 8 0 33.3079 0 33.2444C0 33.181 32 33.2444 32 33.2444L16 8ZM2.76653 31.746L15.9363 10.9968L29.2462 31.746H2.76653Z" fill="white"/>
<defs>
<linearGradient id="paint0_linear" x1="16.001" y1="39.0625" x2="16.001" y2="19.875" gradientUnits="userSpaceOnUse">
<stop stop-color="#743B3F"/>
<stop offset="0.1029" stop-color="#6F3648"/>
<stop offset="0.2736" stop-color="#602962"/>
<stop offset="0.3042" stop-color="#5D2667"/>
<stop offset="0.5872" stop-color="#221634"/>
<stop offset="0.9944" stop-color="#00002A"/>
</linearGradient>
</defs>
</svg>
