<svg width="1050" height="1095" viewBox="0 0 1050 1095" fill="none" xmlns="http://www.w3.org/2000/svg">
<path opacity="0.5" d="M318.337 81.7659C198.401 176.574 179.815 355.849 98.5871 488.107C70.3109 534.128 33.7742 575.315 14.7116 626.369C-29.053 743.228 31.1796 875.785 111.799 968.6C150.241 1012.88 195.144 1053.44 249.473 1072.1C291.252 1086.46 336.049 1087.05 380.025 1087.43L1150.47 1094.9C1236.49 1095.72 1332.07 1092.76 1393.92 1030.12C1436.54 986.988 1453.86 923.999 1468.55 863.875C1486.61 789.997 1502.97 709.765 1474.88 639.401C1442.79 558.895 1361.64 513.273 1311.23 443.805C1229.42 331.256 1231.3 161.026 1127.12 71.1763C1078.48 29.2416 1014.31 12.7966 951.771 4.57408C833.874 -10.949 722.199 18.353 606.42 14.2667C507.454 10.7783 400.438 16.858 318.337 81.7659Z" fill="url(#paint0_linear)"/>
<path d="M462.317 539.223C421.771 539.409 388.769 540.003 388.769 540.003C388.769 540.003 427.998 488.436 462.17 507.541C496.343 526.647 535.598 539.332 535.598 539.332C535.598 539.332 502.863 539.038 462.317 539.223Z" fill="#F2F2F2"/>
<path d="M916.022 555.02C920.629 555.02 924.364 551.285 924.364 546.677C924.364 542.07 920.629 538.334 916.022 538.334C911.414 538.334 907.679 542.07 907.679 546.677C907.679 551.285 911.414 555.02 916.022 555.02Z" fill="#FF6584"/>
<path d="M854.269 679.015L917.651 606.232L919.607 607.936L856.225 680.718L854.269 679.015Z" fill="#3F3D56"/>
<path d="M919.359 620.092C926.731 620.092 932.707 614.116 932.707 606.744C932.707 599.372 926.731 593.396 919.359 593.396C911.987 593.396 906.011 599.372 906.011 606.744C906.011 614.116 911.987 620.092 919.359 620.092Z" fill="#3F3D56"/>
<path d="M879.791 651.794C879.791 651.794 905.419 619.136 872.64 596.733Z" fill="#3F3D56"/>
<path d="M454.805 709.199C501.771 796.281 601.45 833.663 601.45 833.663C601.45 833.663 624.982 729.858 578.016 642.776C531.05 555.695 431.371 518.312 431.371 518.312C431.371 518.312 407.839 622.117 454.805 709.199Z" fill="#3F3D56"/>
<path d="M486.579 680.926C571.357 732.077 604.008 833.676 604.008 833.676C604.008 833.676 499.207 852.344 414.429 801.193C329.651 750.043 297 648.443 297 648.443C297 648.443 401.802 629.776 486.579 680.926Z" fill="#111B47"/>
<path d="M822.908 681.377C737.67 731.829 704.119 833.245 704.119 833.245C704.119 833.245 808.768 852.863 894.006 802.412C979.245 751.96 1012.8 650.543 1012.8 650.543C1012.8 650.543 908.147 630.925 822.908 681.377Z" fill="#3F3D56"/>
<path d="M853.85 712.229C806.123 798.85 706.133 835.332 706.133 835.332C706.133 835.332 683.524 731.373 731.252 644.752C778.979 558.131 878.968 521.649 878.968 521.649C878.968 521.649 901.577 625.608 853.85 712.229Z" fill="#111B47"/>
<path d="M692.302 478.373C685.988 466.401 689.9 451.583 701.302 444.287C700.641 444.569 699.985 444.873 699.338 445.215C686.624 451.93 681.756 467.683 688.465 480.4C695.174 493.117 710.92 497.982 723.635 491.267C724.281 490.925 724.902 490.554 725.508 490.168C713.055 495.471 698.62 490.344 692.302 478.373V478.373Z" fill="#2F2E41"/>
<path d="M663.491 487.324C691.624 497.593 722.755 483.111 733.024 454.978C743.293 426.845 728.811 395.714 700.678 385.445C672.545 375.176 641.414 389.657 631.145 417.791C620.876 445.924 635.358 477.055 663.491 487.324Z" fill="#2F2E41"/>
<path d="M641.112 508.353L642.738 504.173L613.146 528.933L577.375 548.87C577.375 548.87 574.441 494.918 573.14 493.632C571.839 492.346 593.163 480.284 578.98 458.593C558.124 453.587 556.455 489.461 556.455 489.461C556.455 489.461 543.88 572.345 575.098 571.701C606.317 571.058 645.014 543.082 645.665 540.51C646.315 537.937 641.112 508.353 641.112 508.353Z" fill="#FFB8B8"/>
<path d="M654.594 486.661C671.474 492.822 690.153 484.133 696.314 467.253C702.475 450.373 693.786 431.695 676.907 425.533C660.027 419.372 641.348 428.061 635.187 444.941C629.025 461.821 637.714 480.499 654.594 486.661Z" fill="#FFB8B8"/>
<path d="M655.531 486.193C655.531 486.193 663.98 497.152 661.38 498.442C658.78 499.731 643.832 500.376 634.733 511.335C625.634 522.294 645.782 550.014 645.782 550.014L722.473 499.086L691.277 488.772C691.277 488.772 669.829 477.168 670.479 464.92L655.531 486.193Z" fill="#FFB8B8"/>
<path d="M759.18 837H673.035C668.155 801.398 665.899 768.772 665.899 768.772C665.899 768.772 664.64 801.59 661.29 837H550.615C566.304 732.149 640.679 618.45 640.679 618.45C640.679 618.45 641.326 602.961 643.267 600.378C645.209 597.804 632.275 597.158 626.451 577.804C622.9 565.989 626.092 558.258 629.127 554.035C630.168 552.513 631.45 551.169 632.922 550.056C632.922 550.056 634.216 536.513 632.922 534.576C632.756 534.323 634.033 533.433 636.394 532.08C638.361 530.946 641.081 529.488 644.334 527.813C662.969 518.171 699.042 501.112 711.398 495.3C714.109 494.017 715.683 493.284 715.683 493.284L737.668 501.024C755.123 506.827 755.123 543.607 755.123 543.607L754.135 545.108L727.751 584.986L712.448 608.127C716.331 610.701 708.574 626.835 708.574 626.835C708.574 626.835 719.627 642.682 728.617 666.87C733.701 680.332 737.167 694.347 738.945 708.624C740.078 717.876 740.3 727.216 739.609 736.512C737.213 767.594 747.865 805.368 759.18 837Z" fill="#2F2E41"/>
<path d="M737.408 504.02C735.974 503.205 734.258 503.071 732.717 503.653C731.176 504.236 729.968 505.477 729.415 507.044C727.491 512.397 725.54 523.556 726.235 546.757C727.514 589.426 728.153 618.518 728.153 618.518V683.168C728.153 683.168 700.034 745.231 715.371 745.231C730.709 745.231 741.573 696.098 741.573 696.098C741.573 696.098 755.633 621.75 751.159 608.82C751.159 608.82 763.773 519.496 737.408 504.02Z" fill="#FFB8B8"/>
<path d="M667.817 446.274C682.1 451.488 696.625 447.644 700.258 437.689C703.892 427.735 695.259 415.438 680.976 410.225C666.693 405.011 652.169 408.855 648.535 418.81C644.901 428.764 653.534 441.061 667.817 446.274Z" fill="#2F2E41"/>
<path d="M721.367 428.521C735.217 433.576 750.543 426.447 755.599 412.596C760.654 398.746 753.525 383.42 739.675 378.365C725.824 373.309 710.498 380.439 705.443 394.289C700.387 408.139 707.517 423.465 721.367 428.521Z" fill="#2F2E41"/>
<path d="M741.249 427.58C728.211 422.819 720.928 409.053 724.494 395.914C724.19 396.57 723.904 397.239 723.652 397.93C718.694 411.513 725.902 426.623 739.752 431.679C753.603 436.735 768.85 429.821 773.808 416.237C774.06 415.546 774.273 414.851 774.463 414.153C768.726 426.5 754.287 432.337 741.249 427.58V427.58Z" fill="#2F2E41"/>
<path d="M699.404 461.389C700.645 461.533 701.918 459.349 702.248 456.512C702.577 453.674 701.837 451.257 700.596 451.113C699.355 450.969 698.081 453.153 697.752 455.99C697.423 458.828 698.162 461.245 699.404 461.389Z" fill="#FFB8B8"/>
<path d="M698.804 461.137C699.67 461.453 700.628 461.008 700.943 460.142C701.259 459.276 700.814 458.319 699.948 458.003C699.083 457.687 698.125 458.132 697.809 458.998C697.493 459.863 697.938 460.821 698.804 461.137Z" fill="#F2F2F2"/>
<path fill-rule="evenodd" clip-rule="evenodd" d="M363.741 555.854C363.741 561.844 368.596 566.699 374.586 566.699C380.573 566.693 385.425 561.841 385.432 555.854C385.432 549.864 380.576 545.009 374.586 545.009C368.596 545.009 363.741 549.864 363.741 555.854ZM365.548 555.854C365.548 550.863 369.595 546.816 374.586 546.816C379.575 546.822 383.618 550.865 383.624 555.854C383.624 560.846 379.578 564.892 374.586 564.892C369.595 564.892 365.548 560.846 365.548 555.854Z" fill="#3F3D56"/>
<path fill-rule="evenodd" clip-rule="evenodd" d="M804.23 489.947H827.59V466.588H804.23V489.947ZM825.793 488.151H806.027V468.385H825.793V488.151Z" fill="#3F3D56"/>
<path d="M1024.61 610.97C984.063 611.155 951.061 611.749 951.061 611.749C951.061 611.749 990.29 560.182 1024.46 579.288C1058.63 598.393 1097.89 611.078 1097.89 611.078C1097.89 611.078 1065.16 610.784 1024.61 610.97Z" fill="#F2F2F2"/>
<path d="M899.47 435.775C858.924 435.96 825.921 436.555 825.921 436.555C825.921 436.555 865.15 384.988 899.323 404.093C933.496 423.198 972.751 435.883 972.751 435.883C972.751 435.883 940.016 435.589 899.47 435.775Z" fill="#F2F2F2"/>
<path d="M563.787 479.034L572.13 455.675C565.735 452.374 471.409 449.016 474.698 442.596C473.029 432.614 484.1 385.078 508.068 364.322L583.152 434.399C588.991 434.399 598.168 439.389 600.671 443.576L625.699 439.389C624.031 445.543 617.38 460.593 615.688 463.897L605.275 485.289C603.696 488.372 590.611 468.379 587.323 469.438C577.312 496.969 566.858 480.62 563.787 479.034Z" fill="white"/>
<path d="M485.665 330.239C488.501 324.724 486.337 317.957 480.832 315.126C475.326 312.295 468.564 314.471 465.727 319.987C462.891 325.503 465.055 332.269 470.561 335.1C476.066 337.932 482.829 335.755 485.665 330.239Z" fill="white"/>
<path d="M577.312 428.56C578.98 430.506 583.152 434 583.152 434.4L572 456L564.798 454.422L577.312 428.56Z" fill="#FF8484"/>
<path d="M571.842 488.015C573.963 488.789 574.516 486.066 576 482C577.484 477.934 573.963 473.057 571.842 472.283C569.72 471.508 570.484 473.434 569 477.5C567.516 481.566 569.72 487.241 571.842 488.015Z" fill="#FFB8B8"/>
<defs>
<linearGradient id="paint0_linear" x1="745" y1="0" x2="745" y2="1095" gradientUnits="userSpaceOnUse">
<stop stop-color="#001873"/>
<stop offset="1" stop-color="#041143" stop-opacity="0.5"/>
</linearGradient>
</defs>
</svg>
