<svg width="1440" height="1024" viewBox="0 0 1440 1024" fill="none" xmlns="http://www.w3.org/2000/svg">
<g clip-path="url(#clip0)">
<rect width="1440" height="1024" fill="white"/>
<path opacity="0.5" d="M-826.657 -973.306C-946.595 -872.783 -965.181 -682.702 -1046.41 -542.473C-1074.69 -493.678 -1111.23 -450.008 -1130.29 -395.877C-1174.05 -271.974 -1113.82 -131.428 -1033.2 -33.019C-994.755 13.9266 -949.851 56.9358 -895.522 76.7233C-853.742 91.9403 -808.944 92.5744 -764.967 92.9707L5.49707 100.896C91.5189 101.768 187.099 98.6242 248.948 32.2081C291.575 -13.5223 308.89 -80.3082 323.585 -144.056C341.642 -222.387 358.004 -307.454 329.913 -382.06C297.823 -467.418 216.673 -515.79 166.262 -589.445C84.4497 -708.777 86.3296 -889.269 -17.8551 -984.534C-66.4923 -1029 -130.671 -1046.43 -193.208 -1055.15C-311.108 -1071.61 -422.785 -1040.54 -538.567 -1044.87C-637.536 -1048.57 -744.553 -1042.13 -826.657 -973.306Z" fill="url(#paint0_linear)"/>
<path opacity="0.5" d="M823.288 12.2724C715.119 105.349 698.357 281.35 625.098 411.192C599.596 456.372 566.644 496.807 549.451 546.929C509.98 661.653 564.304 791.789 637.013 882.908C671.684 926.376 712.182 966.2 761.18 984.522C798.86 998.611 839.262 999.199 878.924 999.565L1573.78 1006.9C1651.36 1007.71 1737.56 1004.8 1793.34 943.304C1831.79 900.961 1847.41 839.122 1860.66 780.096C1876.94 707.568 1891.7 628.802 1866.36 559.722C1837.42 480.687 1764.24 435.898 1718.77 367.699C1644.99 257.206 1646.68 90.0847 1552.72 1.87628C1508.86 -39.2925 1450.98 -55.4372 1394.58 -63.5095C1288.25 -78.749 1187.53 -49.9822 1083.11 -53.9939C993.851 -57.4185 897.335 -51.4499 823.288 12.2724Z" fill="url(#paint1_linear)"/>
<path d="M811.845 479.671C772.876 479.851 741.156 480.426 741.156 480.426C741.156 480.426 778.86 430.558 811.703 449.033C844.547 467.509 882.276 479.776 882.276 479.776C882.276 479.776 850.814 479.492 811.845 479.671Z" fill="#F2F2F2"/>
<path d="M1247.9 494.948C1252.33 494.948 1255.92 491.335 1255.92 486.88C1255.92 482.424 1252.33 478.812 1247.9 478.812C1243.48 478.812 1239.89 482.424 1239.89 486.88C1239.89 491.335 1243.48 494.948 1247.9 494.948Z" fill="#FF6584"/>
<path d="M1188.55 614.858L1249.47 544.473L1251.35 546.12L1190.43 616.505L1188.55 614.858Z" fill="#3F3D56"/>
<path d="M1251.11 557.876C1258.2 557.876 1263.94 552.097 1263.94 544.968C1263.94 537.839 1258.2 532.059 1251.11 532.059C1244.03 532.059 1238.28 537.839 1238.28 544.968C1238.28 552.097 1244.03 557.876 1251.11 557.876Z" fill="#3F3D56"/>
<path d="M1213.08 588.534C1213.08 588.534 1237.71 556.952 1206.21 535.286Z" fill="#3F3D56"/>
<path d="M804.625 644.047C849.765 728.26 945.567 764.411 945.567 764.411C945.567 764.411 968.183 664.026 923.044 579.813C877.905 495.6 782.102 459.449 782.102 459.449C782.102 459.449 759.486 559.835 804.625 644.047Z" fill="#3F3D56"/>
<path d="M835.163 616.706C916.644 666.172 948.025 764.424 948.025 764.424C948.025 764.424 847.299 782.477 765.818 733.011C684.337 683.546 652.956 585.293 652.956 585.293C652.956 585.293 753.682 567.241 835.163 616.706Z" fill="#111B47"/>
<path d="M1158.41 617.142C1076.49 665.932 1044.24 764.007 1044.24 764.007C1044.24 764.007 1144.82 782.979 1226.75 734.189C1308.67 685.4 1340.92 587.324 1340.92 587.324C1340.92 587.324 1240.34 568.352 1158.41 617.142Z" fill="#3F3D56"/>
<path d="M1188.15 646.978C1142.28 730.745 1046.18 766.025 1046.18 766.025C1046.18 766.025 1024.45 665.491 1070.32 581.724C1116.19 497.956 1212.29 462.677 1212.29 462.677C1212.29 462.677 1234.02 563.21 1188.15 646.978Z" fill="#111B47"/>
<path d="M1032.88 420.826C1026.82 409.248 1030.58 394.919 1041.54 387.863C1040.9 388.136 1040.27 388.43 1039.65 388.76C1027.43 395.254 1022.75 410.488 1029.2 422.786C1035.65 435.084 1050.78 439.789 1063 433.295C1063.62 432.964 1064.22 432.606 1064.8 432.232C1052.83 437.36 1038.96 432.402 1032.88 420.826V420.826Z" fill="#2F2E41"/>
<path d="M1005.19 429.482C1032.23 439.413 1062.15 425.408 1072.02 398.202C1081.89 370.995 1067.97 340.89 1040.94 330.959C1013.9 321.028 983.976 335.033 974.106 362.239C964.236 389.446 978.155 419.551 1005.19 429.482Z" fill="#2F2E41"/>
<path d="M983.687 449.818L985.25 445.776L956.808 469.72L922.428 489.001C922.428 489.001 919.609 436.826 918.358 435.582C917.108 434.338 937.602 422.674 923.971 401.698C903.926 396.857 902.322 431.548 902.322 431.548C902.322 431.548 890.236 511.702 920.24 511.08C950.245 510.458 987.438 483.403 988.063 480.915C988.688 478.428 983.687 449.818 983.687 449.818Z" fill="#FFB8B8"/>
<path d="M996.643 428.841C1012.87 434.799 1030.82 426.396 1036.74 410.073C1042.66 393.749 1034.31 375.686 1018.09 369.727C1001.86 363.769 983.912 372.172 977.991 388.495C972.069 404.819 980.42 422.882 996.643 428.841Z" fill="#FFB8B8"/>
<path d="M997.544 428.389C997.544 428.389 1005.66 438.987 1003.17 440.234C1000.67 441.48 986.3 442.104 977.555 452.702C968.81 463.3 988.174 490.107 988.174 490.107L1061.88 440.857L1031.9 430.882C1031.9 430.882 1011.29 419.661 1011.91 407.816L997.544 428.389Z" fill="#FFB8B8"/>
<path d="M1097.16 767.638H1014.37C1009.68 733.209 1007.51 701.657 1007.51 701.657C1007.51 701.657 1006.3 733.395 1003.08 767.638H896.708C911.786 666.241 983.269 556.288 983.269 556.288C983.269 556.288 983.891 541.309 985.757 538.812C987.623 536.322 975.192 535.698 969.594 516.981C966.182 505.556 969.25 498.079 972.166 493.995C973.167 492.523 974.399 491.224 975.814 490.147C975.814 490.147 977.058 477.05 975.814 475.177C975.654 474.932 976.881 474.072 979.151 472.764C981.042 471.667 983.656 470.257 986.782 468.637C1004.69 459.313 1039.36 442.815 1051.24 437.195C1053.84 435.955 1055.36 435.246 1055.36 435.246L1076.49 442.731C1093.26 448.343 1093.26 483.911 1093.26 483.911L1092.31 485.362L1066.96 523.926L1052.25 546.305C1055.98 548.794 1048.52 564.397 1048.52 564.397C1048.52 564.397 1059.15 579.721 1067.79 603.113C1072.67 616.131 1076.01 629.685 1077.71 643.491C1078.8 652.438 1079.02 661.471 1078.35 670.46C1076.05 700.518 1086.29 737.048 1097.16 767.638Z" fill="#2F2E41"/>
<path d="M1076.24 445.628C1074.86 444.84 1073.21 444.71 1071.73 445.273C1070.25 445.837 1069.09 447.037 1068.55 448.552C1066.71 453.729 1064.83 464.52 1065.5 486.957C1066.73 528.22 1067.34 556.354 1067.34 556.354V618.874C1067.34 618.874 1040.32 678.893 1055.06 678.893C1069.8 678.893 1080.24 631.378 1080.24 631.378C1080.24 631.378 1093.75 559.48 1089.45 546.976C1089.45 546.976 1101.58 460.594 1076.24 445.628Z" fill="#FFB8B8"/>
<path d="M1009.35 389.785C1023.08 394.826 1037.04 391.109 1040.53 381.483C1044.02 371.856 1035.73 359.965 1022 354.923C1008.27 349.881 994.312 353.598 990.82 363.225C987.328 372.852 995.625 384.743 1009.35 389.785Z" fill="#2F2E41"/>
<path d="M1060.82 372.616C1074.13 377.505 1088.86 370.61 1093.72 357.216C1098.58 343.823 1091.73 329.001 1078.42 324.112C1065.1 319.224 1050.37 326.118 1045.51 339.512C1040.66 352.906 1047.51 367.727 1060.82 372.616Z" fill="#2F2E41"/>
<path d="M1079.93 371.706C1067.4 367.102 1060.4 353.79 1063.83 341.084C1063.53 341.718 1063.26 342.365 1063.02 343.033C1058.25 356.169 1065.18 370.781 1078.49 375.67C1091.8 380.559 1106.46 373.873 1111.22 360.737C1111.46 360.069 1111.67 359.396 1111.85 358.722C1106.34 370.662 1092.46 376.307 1079.93 371.706V371.706Z" fill="#2F2E41"/>
<path d="M1039.71 404.401C1040.9 404.541 1042.13 402.429 1042.44 399.685C1042.76 396.941 1042.05 394.603 1040.86 394.464C1039.66 394.325 1038.44 396.436 1038.12 399.18C1037.81 401.925 1038.52 404.262 1039.71 404.401Z" fill="#FFB8B8"/>
<path d="M1039.13 404.158C1039.97 404.464 1040.89 404.033 1041.19 403.196C1041.49 402.358 1041.07 401.432 1040.23 401.127C1039.4 400.821 1038.48 401.252 1038.18 402.089C1037.87 402.926 1038.3 403.852 1039.13 404.158Z" fill="#F2F2F2"/>
<path fill-rule="evenodd" clip-rule="evenodd" d="M717.102 495.754C717.102 501.547 721.768 506.242 727.525 506.242C733.279 506.236 737.942 501.544 737.949 495.754C737.949 489.962 733.282 485.266 727.525 485.266C721.768 485.266 717.102 489.962 717.102 495.754ZM718.839 495.754C718.839 490.927 722.728 487.014 727.525 487.014C732.32 487.02 736.206 490.93 736.211 495.754C736.211 500.581 732.322 504.494 727.525 504.494C722.728 504.494 718.839 500.581 718.839 495.754Z" fill="#3F3D56"/>
<path fill-rule="evenodd" clip-rule="evenodd" d="M1140.46 432.019H1162.91V409.429H1140.46V432.019ZM1161.19 430.281H1142.19V411.167H1161.19V430.281Z" fill="#3F3D56"/>
<path d="M1352.27 549.054C1313.3 549.233 1281.58 549.808 1281.58 549.808C1281.58 549.808 1319.28 499.94 1352.13 518.416C1384.97 536.892 1422.7 549.159 1422.7 549.159C1422.7 549.159 1391.24 548.875 1352.27 549.054Z" fill="#F2F2F2"/>
<path d="M1232 379.631C1193.03 379.81 1161.31 380.385 1161.31 380.385C1161.31 380.385 1199.01 330.517 1231.86 348.993C1264.7 367.469 1302.43 379.736 1302.43 379.736C1302.43 379.736 1270.97 379.452 1232 379.631Z" fill="#F2F2F2"/>
<path d="M909.368 421.466L917.386 398.876C911.24 395.684 820.582 392.436 823.742 386.228C822.139 376.575 832.779 330.604 855.815 310.532L927.979 378.301C933.592 378.301 942.412 383.126 944.817 387.176L968.872 383.126C967.268 389.078 960.876 403.632 959.25 406.827L949.242 427.514C947.725 430.496 935.148 411.162 931.988 412.186C922.366 438.809 912.319 422.999 909.368 421.466Z" fill="white"/>
<path d="M834.284 277.573C837.01 272.239 834.93 265.695 829.638 262.957C824.347 260.219 817.847 262.324 815.121 267.658C812.395 272.992 814.475 279.535 819.767 282.273C825.058 285.011 831.558 282.907 834.284 277.573Z" fill="white"/>
<path d="M922.367 372.654C923.971 374.536 927.338 378.301 927.98 378.301L917.556 398.47L910.34 397.664L922.367 372.654Z" fill="#FF8484"/>
<path d="M919.644 429.394C921.683 430.142 924.492 427.562 925.918 423.63C927.345 419.698 926.848 415.904 924.809 415.155C922.77 414.406 919.961 416.987 918.535 420.918C917.108 424.85 917.605 428.645 919.644 429.394Z" fill="#FFB8B8"/>
</g>
<defs>
<linearGradient id="paint0_linear" x1="-413.072" y1="-1043.65" x2="-413.072" y2="117.35" gradientUnits="userSpaceOnUse">
<stop stop-color="#001873"/>
<stop offset="1" stop-color="#041143" stop-opacity="0.5"/>
</linearGradient>
<linearGradient id="paint1_linear" x1="1208.09" y1="-68" x2="1208.09" y2="1007" gradientUnits="userSpaceOnUse">
<stop stop-color="#001873"/>
<stop offset="1" stop-color="#041143" stop-opacity="0.5"/>
</linearGradient>
<clipPath id="clip0">
<rect width="1440" height="1024" fill="white"/>
</clipPath>
</defs>
</svg>
