<svg width="1620" height="900" viewBox="0 0 1440 1024" fill="none" xmlns="http://www.w3.org/2000/svg">
<g clip-path="url(#clip0)">
<rect width="1440" height="1024" fill="white"/>
<path opacity="0.5" d="M735.343 42.6942C615.405 143.217 596.819 333.298 515.589 473.527C487.312 522.322 450.775 565.992 431.712 620.123C387.946 744.026 448.18 884.572 528.801 982.981C567.245 1029.93 612.149 1072.94 666.478 1092.72C708.258 1107.94 753.056 1108.57 797.033 1108.97L1567.5 1116.9C1653.52 1117.77 1749.1 1114.62 1810.95 1048.21C1853.57 1002.48 1870.89 935.692 1885.58 871.944C1903.64 793.613 1920 708.546 1891.91 633.94C1859.82 548.582 1778.67 500.21 1728.26 426.555C1646.45 307.223 1648.33 126.731 1544.14 31.4664C1495.51 -12.9959 1431.33 -30.4321 1368.79 -39.1502C1250.89 -55.6089 1139.21 -24.5408 1023.43 -28.8734C924.464 -32.572 817.447 -26.1259 735.343 42.6942Z" fill="url(#paint0_linear)"/>
<path d="M797.317 506.223C756.771 506.409 723.769 507.003 723.769 507.003C723.769 507.003 762.998 455.436 797.17 474.541C831.343 493.647 870.599 506.332 870.599 506.332C870.599 506.332 837.863 506.038 797.317 506.223Z" fill="#F2F2F2"/>
<path d="M1251.02 522.02C1255.63 522.02 1259.36 518.285 1259.36 513.677C1259.36 509.07 1255.63 505.334 1251.02 505.334C1246.41 505.334 1242.68 509.07 1242.68 513.677C1242.68 518.285 1246.41 522.02 1251.02 522.02Z" fill="#FF6584"/>
<path d="M1189.27 646.015L1252.65 573.232L1254.61 574.936L1191.23 647.718L1189.27 646.015Z" fill="#3F3D56"/>
<path d="M1254.36 587.092C1261.73 587.092 1267.71 581.116 1267.71 573.744C1267.71 566.372 1261.73 560.396 1254.36 560.396C1246.99 560.396 1241.01 566.372 1241.01 573.744C1241.01 581.116 1246.99 587.092 1254.36 587.092Z" fill="#3F3D56"/>
<path d="M1214.79 618.794C1214.79 618.794 1240.42 586.136 1207.64 563.733Z" fill="#3F3D56"/>
<path d="M789.806 676.199C836.771 763.281 936.45 800.663 936.45 800.663C936.45 800.663 959.982 696.858 913.016 609.776C866.05 522.695 766.371 485.312 766.371 485.312C766.371 485.312 742.84 589.117 789.806 676.199Z" fill="#3F3D56"/>
<path d="M821.579 647.926C906.357 699.077 939.008 800.676 939.008 800.676C939.008 800.676 834.207 819.344 749.429 768.193C664.651 717.043 632 615.443 632 615.443C632 615.443 736.802 596.776 821.579 647.926Z" fill="#111B47"/>
<path d="M1157.91 648.377C1072.67 698.829 1039.12 800.245 1039.12 800.245C1039.12 800.245 1143.77 819.863 1229.01 769.412C1314.25 718.96 1347.8 617.543 1347.8 617.543C1347.8 617.543 1243.15 597.925 1157.91 648.377Z" fill="#3F3D56"/>
<path d="M1188.85 679.229C1141.12 765.85 1041.13 802.332 1041.13 802.332C1041.13 802.332 1018.52 698.373 1066.25 611.752C1113.98 525.131 1213.97 488.649 1213.97 488.649C1213.97 488.649 1236.58 592.608 1188.85 679.229Z" fill="#111B47"/>
<path d="M1027.3 445.373C1020.99 433.401 1024.9 418.583 1036.3 411.287C1035.64 411.569 1034.99 411.873 1034.34 412.215C1021.62 418.93 1016.76 434.683 1023.47 447.4C1030.17 460.117 1045.92 464.982 1058.63 458.267C1059.28 457.925 1059.9 457.554 1060.51 457.168C1048.05 462.471 1033.62 457.344 1027.3 445.373V445.373Z" fill="#2F2E41"/>
<path d="M998.491 454.324C1026.62 464.593 1057.75 450.111 1068.02 421.978C1078.29 393.845 1063.81 362.714 1035.68 352.445C1007.54 342.176 976.414 356.657 966.145 384.791C955.876 412.924 970.358 444.055 998.491 454.324Z" fill="#2F2E41"/>
<path d="M976.112 475.353L977.738 471.173L948.146 495.933L912.375 515.87C912.375 515.87 909.441 461.918 908.14 460.632C906.84 459.346 928.163 447.284 913.98 425.593C893.124 420.587 891.455 456.461 891.455 456.461C891.455 456.461 878.88 539.345 910.098 538.701C941.317 538.058 980.015 510.082 980.665 507.51C981.315 504.937 976.112 475.353 976.112 475.353Z" fill="#FFB8B8"/>
<path d="M989.594 453.661C1006.47 459.822 1025.15 451.133 1031.31 434.253C1037.48 417.373 1028.79 398.695 1011.91 392.533C995.027 386.372 976.348 395.061 970.186 411.941C964.025 428.821 972.714 447.499 989.594 453.661Z" fill="#FFB8B8"/>
<path d="M990.53 453.193C990.53 453.193 998.98 464.152 996.38 465.442C993.78 466.731 978.832 467.376 969.733 478.335C960.634 489.294 980.782 517.014 980.782 517.014L1057.47 466.086L1026.28 455.772C1026.28 455.772 1004.83 444.168 1005.48 431.92L990.53 453.193Z" fill="#FFB8B8"/>
<path d="M1094.18 804H1008.03C1003.16 768.398 1000.9 735.772 1000.9 735.772C1000.9 735.772 999.64 768.59 996.29 804H885.615C901.304 699.149 975.679 585.45 975.679 585.45C975.679 585.45 976.326 569.961 978.267 567.378C980.209 564.804 967.275 564.158 961.451 544.804C957.9 532.989 961.092 525.258 964.127 521.035C965.168 519.513 966.45 518.169 967.922 517.056C967.922 517.056 969.216 503.513 967.922 501.576C967.756 501.323 969.033 500.433 971.394 499.08C973.361 497.946 976.081 496.488 979.334 494.813C997.969 485.171 1034.04 468.112 1046.4 462.3C1049.11 461.017 1050.68 460.284 1050.68 460.284L1072.67 468.024C1090.12 473.827 1090.12 510.607 1090.12 510.607L1089.13 512.108L1062.75 551.986L1047.45 575.127C1051.33 577.701 1043.57 593.835 1043.57 593.835C1043.57 593.835 1054.63 609.682 1063.62 633.87C1068.7 647.332 1072.17 661.347 1073.94 675.624C1075.08 684.876 1075.3 694.216 1074.61 703.512C1072.21 734.594 1082.86 772.368 1094.18 804Z" fill="#2F2E41"/>
<path d="M1072.41 471.02C1070.97 470.205 1069.26 470.071 1067.72 470.653C1066.18 471.236 1064.97 472.477 1064.42 474.044C1062.49 479.397 1060.54 490.556 1061.24 513.757C1062.51 556.426 1063.15 585.518 1063.15 585.518V650.168C1063.15 650.168 1035.03 712.231 1050.37 712.231C1065.71 712.231 1076.57 663.098 1076.57 663.098C1076.57 663.098 1090.63 588.75 1086.16 575.82C1086.16 575.82 1098.77 486.496 1072.41 471.02Z" fill="#FFB8B8"/>
<path d="M1002.82 413.274C1017.1 418.488 1031.62 414.644 1035.26 404.689C1038.89 394.735 1030.26 382.438 1015.98 377.225C1001.69 372.011 987.169 375.855 983.535 385.81C979.901 395.764 988.534 408.061 1002.82 413.274Z" fill="#2F2E41"/>
<path d="M1056.37 395.521C1070.22 400.576 1085.54 393.447 1090.6 379.596C1095.65 365.746 1088.52 350.42 1074.67 345.365C1060.82 340.309 1045.5 347.439 1040.44 361.289C1035.39 375.139 1042.52 390.465 1056.37 395.521Z" fill="#2F2E41"/>
<path d="M1076.25 394.58C1063.21 389.819 1055.93 376.053 1059.49 362.914C1059.19 363.57 1058.9 364.239 1058.65 364.93C1053.69 378.513 1060.9 393.623 1074.75 398.679C1088.6 403.735 1103.85 396.821 1108.81 383.237C1109.06 382.546 1109.27 381.851 1109.46 381.153C1103.73 393.5 1089.29 399.337 1076.25 394.58V394.58Z" fill="#2F2E41"/>
<path d="M1034.4 428.389C1035.65 428.533 1036.92 426.349 1037.25 423.512C1037.58 420.674 1036.84 418.257 1035.6 418.113C1034.35 417.969 1033.08 420.153 1032.75 422.99C1032.42 425.828 1033.16 428.245 1034.4 428.389Z" fill="#FFB8B8"/>
<path d="M1033.8 428.137C1034.67 428.453 1035.63 428.008 1035.94 427.142C1036.26 426.276 1035.81 425.319 1034.95 425.003C1034.08 424.687 1033.12 425.132 1032.81 425.998C1032.49 426.863 1032.94 427.821 1033.8 428.137Z" fill="#F2F2F2"/>
<path fill-rule="evenodd" clip-rule="evenodd" d="M698.741 522.854C698.741 528.844 703.596 533.699 709.586 533.699C715.573 533.693 720.425 528.841 720.432 522.854C720.432 516.864 715.576 512.009 709.586 512.009C703.596 512.009 698.741 516.864 698.741 522.854ZM700.549 522.854C700.549 517.863 704.595 513.816 709.586 513.816C714.575 513.822 718.618 517.865 718.624 522.854C718.624 527.846 714.578 531.892 709.586 531.892C704.595 531.892 700.549 527.846 700.549 522.854Z" fill="#3F3D56"/>
<path fill-rule="evenodd" clip-rule="evenodd" d="M1139.23 456.947H1162.59V433.588H1139.23V456.947ZM1160.79 455.151H1141.03V435.385H1160.79V455.151Z" fill="#3F3D56"/>
<path d="M1359.61 577.97C1319.06 578.155 1286.06 578.749 1286.06 578.749C1286.06 578.749 1325.29 527.182 1359.46 546.288C1393.63 565.393 1432.89 578.078 1432.89 578.078C1432.89 578.078 1400.16 577.784 1359.61 577.97Z" fill="#F2F2F2"/>
<path d="M1234.47 402.775C1193.92 402.96 1160.92 403.555 1160.92 403.555C1160.92 403.555 1200.15 351.988 1234.32 371.093C1268.5 390.198 1307.75 402.883 1307.75 402.883C1307.75 402.883 1275.02 402.589 1234.47 402.775Z" fill="#F2F2F2"/>
<path d="M898.787 446.034L907.13 422.675C900.735 419.374 806.409 416.016 809.697 409.596C808.029 399.614 819.1 352.078 843.068 331.322L918.152 401.399C923.991 401.399 933.168 406.389 935.671 410.576L960.699 406.389C959.031 412.543 952.38 427.593 950.688 430.897L940.275 452.289C938.696 455.372 925.611 435.379 922.323 436.438C912.312 463.969 901.858 447.62 898.787 446.034Z" fill="white"/>
<path d="M820.665 297.239C823.501 291.724 821.337 284.957 815.832 282.126C810.326 279.295 803.563 281.471 800.727 286.987C797.891 292.503 800.055 299.269 805.561 302.1C811.066 304.932 817.829 302.755 820.665 297.239Z" fill="white"/>
<path d="M912.312 395.56C913.98 397.506 917.484 401.4 918.151 401.4L907.306 422.256L899.798 421.422L912.312 395.56Z" fill="#FF8484"/>
<path d="M909.479 454.233C911.6 455.007 914.523 452.339 916.007 448.273C917.491 444.207 916.975 440.283 914.853 439.509C912.732 438.735 909.809 441.403 908.325 445.469C906.841 449.534 907.357 453.458 909.479 454.233Z" fill="#FFB8B8"/>
</g>
<defs>
<linearGradient id="paint0_linear" x1="1162.02" y1="-44" x2="1162.02" y2="1117" gradientUnits="userSpaceOnUse">
<stop stop-color="#001873"/>
<stop offset="1" stop-color="#041143" stop-opacity="0.5"/>
</linearGradient>
<clipPath id="clip0">
<rect width="1440" height="1024" fill="white"/>
</clipPath>
</defs>
</svg>
