<svg width="1440" height="900" viewBox="0 0 1440 900" fill="none" xmlns="http://www.w3.org/2000/svg">
<g clip-path="url(#clip0)">
<rect width="1440" height="900" fill="white"/>
<path opacity="0.5" d="M857.288 -94.7276C749.119 -1.65132 732.357 174.35 659.098 304.192C633.596 349.372 600.644 389.807 583.451 439.929C543.98 554.653 598.304 684.789 671.013 775.908C705.684 819.376 746.182 859.2 795.18 877.522C832.86 891.611 873.262 892.199 912.924 892.565L1607.78 899.904C1685.36 900.711 1771.56 897.8 1827.34 836.304C1865.79 793.961 1881.4 732.122 1894.66 673.096C1910.94 600.568 1925.7 521.802 1900.36 452.722C1871.42 373.687 1798.24 328.898 1752.77 260.699C1678.99 150.206 1680.68 -16.9153 1586.72 -105.124C1542.86 -146.293 1484.98 -162.437 1428.58 -170.509C1322.25 -185.749 1221.53 -156.982 1117.11 -160.994C1027.85 -164.419 931.335 -158.45 857.288 -94.7276Z" fill="url(#paint0_linear)"/>
<path d="M820.801 414.302C782.93 414.478 752.104 415.045 752.104 415.045C752.104 415.045 788.745 365.934 820.663 384.129C852.581 402.324 889.247 414.405 889.247 414.405C889.247 414.405 858.672 414.125 820.801 414.302Z" fill="#F2F2F2"/>
<path d="M1244.57 429.346C1248.88 429.346 1252.37 425.789 1252.37 421.401C1252.37 417.013 1248.88 413.456 1244.57 413.456C1240.27 413.456 1236.78 417.013 1236.78 421.401C1236.78 425.789 1240.27 429.346 1244.57 429.346Z" fill="#FF6584"/>
<path d="M1186.89 547.434L1246.09 478.118L1247.92 479.741L1188.72 549.056L1186.89 547.434Z" fill="#3F3D56"/>
<path d="M1247.69 491.318C1254.58 491.318 1260.16 485.627 1260.16 478.606C1260.16 471.585 1254.58 465.894 1247.69 465.894C1240.8 465.894 1235.22 471.585 1235.22 478.606C1235.22 485.627 1240.8 491.318 1247.69 491.318Z" fill="#3F3D56"/>
<path d="M1210.73 521.51C1210.73 521.51 1234.67 490.409 1204.05 469.072Z" fill="#3F3D56"/>
<path d="M813.785 576.179C857.653 659.112 950.755 694.713 950.755 694.713C950.755 694.713 972.734 595.854 928.867 512.921C884.999 429.988 791.897 394.387 791.897 394.387C791.897 394.387 769.918 493.246 813.785 576.179Z" fill="#3F3D56"/>
<path d="M843.462 549.254C922.647 597.968 953.144 694.727 953.144 694.727C953.144 694.727 855.256 712.505 776.071 663.791C696.886 615.077 666.39 518.318 666.39 518.318C666.39 518.318 764.277 500.54 843.462 549.254Z" fill="#111B47"/>
<path d="M1157.6 549.684C1077.99 597.732 1046.65 694.317 1046.65 694.317C1046.65 694.317 1144.4 713 1224.01 664.952C1303.63 616.904 1334.96 520.319 1334.96 520.319C1334.96 520.319 1237.22 501.635 1157.6 549.684Z" fill="#3F3D56"/>
<path d="M1186.5 579.065C1141.93 661.559 1048.53 696.303 1048.53 696.303C1048.53 696.303 1027.41 597.297 1071.99 514.803C1116.57 432.309 1209.96 397.565 1209.96 397.565C1209.96 397.565 1231.08 496.571 1186.5 579.065Z" fill="#111B47"/>
<path d="M1035.61 356.351C1029.72 344.949 1033.37 330.837 1044.02 323.889C1043.4 324.158 1042.79 324.447 1042.19 324.772C1030.31 331.168 1025.76 346.17 1032.03 358.281C1038.3 370.392 1053 375.025 1064.88 368.63C1065.48 368.305 1066.06 367.952 1066.63 367.583C1055 372.634 1041.51 367.751 1035.61 356.351V356.351Z" fill="#2F2E41"/>
<path d="M1008.7 364.876C1034.98 374.655 1064.06 360.864 1073.65 334.071C1083.24 307.278 1069.71 277.63 1043.44 267.85C1017.16 258.071 988.081 271.862 978.49 298.655C968.898 325.448 982.425 355.096 1008.7 364.876Z" fill="#2F2E41"/>
<path d="M987.801 384.902L989.32 380.921L961.679 404.502L928.268 423.489C928.268 423.489 925.528 372.107 924.313 370.882C923.098 369.657 943.015 358.17 929.768 337.513C910.287 332.746 908.729 366.91 908.729 366.91C908.729 366.91 896.983 445.845 926.142 445.232C955.301 444.62 991.446 417.977 992.053 415.527C992.661 413.077 987.801 384.902 987.801 384.902Z" fill="#FFB8B8"/>
<path d="M1000.39 364.244C1016.16 370.112 1033.61 361.837 1039.36 345.761C1045.12 329.686 1037 311.897 1021.23 306.029C1005.47 300.161 988.02 308.436 982.265 324.512C976.51 340.588 984.626 358.376 1000.39 364.244Z" fill="#FFB8B8"/>
<path d="M1001.27 363.799C1001.27 363.799 1009.16 374.236 1006.73 375.464C1004.3 376.692 990.341 377.306 981.842 387.743C973.343 398.18 992.162 424.58 992.162 424.58L1063.79 376.078L1034.66 366.255C1034.66 366.255 1014.62 355.204 1015.23 343.539L1001.27 363.799Z" fill="#FFB8B8"/>
<path d="M1098.08 697.892H1017.62C1013.06 663.986 1010.95 632.914 1010.95 632.914C1010.95 632.914 1009.78 664.169 1006.65 697.892H903.273C917.927 598.036 987.395 489.754 987.395 489.754C987.395 489.754 988 475.003 989.813 472.543C991.626 470.092 979.546 469.477 974.106 451.045C970.79 439.793 973.771 432.43 976.605 428.408C977.578 426.958 978.775 425.678 980.15 424.618C980.15 424.618 981.359 411.721 980.15 409.876C979.995 409.635 981.187 408.787 983.393 407.499C985.231 406.419 987.771 405.031 990.809 403.435C1008.22 394.253 1041.91 378.006 1053.45 372.471C1055.98 371.25 1057.45 370.552 1057.45 370.552L1077.99 377.923C1094.29 383.449 1094.29 418.477 1094.29 418.477L1093.37 419.906L1068.72 457.884L1054.43 479.923C1058.06 482.374 1050.81 497.74 1050.81 497.74C1050.81 497.74 1061.14 512.831 1069.53 535.867C1074.28 548.688 1077.52 562.036 1079.18 575.631C1080.24 584.443 1080.44 593.338 1079.8 602.191C1077.56 631.792 1087.51 667.767 1098.08 697.892Z" fill="#2F2E41"/>
<path d="M1077.74 380.776C1076.4 379.999 1074.8 379.872 1073.36 380.427C1071.92 380.982 1070.79 382.163 1070.28 383.655C1068.48 388.753 1066.66 399.381 1067.31 421.476C1068.5 462.112 1069.1 489.819 1069.1 489.819V551.388C1069.1 551.388 1042.83 610.495 1057.16 610.495C1071.49 610.495 1081.63 563.702 1081.63 563.702C1081.63 563.702 1094.76 492.897 1090.59 480.583C1090.59 480.583 1102.37 395.515 1077.74 380.776Z" fill="#FFB8B8"/>
<path d="M1012.74 325.781C1026.08 330.746 1039.65 327.086 1043.04 317.605C1046.44 308.125 1038.37 296.414 1025.03 291.449C1011.69 286.484 998.127 290.144 994.733 299.625C991.339 309.106 999.403 320.816 1012.74 325.781Z" fill="#2F2E41"/>
<path d="M1062.76 308.875C1075.7 313.689 1090.01 306.899 1094.73 293.709C1099.46 280.519 1092.8 265.923 1079.86 261.108C1066.92 256.294 1052.61 263.083 1047.89 276.274C1043.16 289.464 1049.82 304.06 1062.76 308.875Z" fill="#2F2E41"/>
<path d="M1081.33 307.978C1069.15 303.444 1062.35 290.334 1065.68 277.821C1065.4 278.445 1065.13 279.082 1064.89 279.74C1060.26 292.677 1067 307.067 1079.93 311.882C1092.87 316.696 1107.11 310.112 1111.74 297.175C1111.98 296.517 1112.18 295.855 1112.35 295.191C1107 306.95 1093.51 312.508 1081.33 307.978V307.978Z" fill="#2F2E41"/>
<path d="M1042.25 340.176C1043.41 340.313 1044.6 338.234 1044.9 335.531C1045.21 332.829 1044.52 330.527 1043.36 330.39C1042.2 330.253 1041.01 332.332 1040.7 335.035C1040.4 337.737 1041.09 340.039 1042.25 340.176Z" fill="#FFB8B8"/>
<path d="M1041.69 339.937C1042.49 340.237 1043.39 339.813 1043.68 338.989C1043.98 338.164 1043.56 337.252 1042.75 336.951C1041.95 336.65 1041.05 337.075 1040.76 337.899C1040.46 338.723 1040.88 339.636 1041.69 339.937Z" fill="#F2F2F2"/>
<path fill-rule="evenodd" clip-rule="evenodd" d="M728.728 430.141C728.728 435.846 733.263 440.47 738.857 440.47C744.449 440.463 748.981 435.843 748.987 430.141C748.987 424.437 744.452 419.812 738.857 419.812C733.263 419.812 728.728 424.437 728.728 430.141ZM730.416 430.141C730.416 425.387 734.195 421.534 738.857 421.534C743.517 421.539 747.293 425.39 747.299 430.141C747.299 434.895 743.519 438.748 738.857 438.748C734.195 438.748 730.416 434.895 730.416 430.141Z" fill="#3F3D56"/>
<path fill-rule="evenodd" clip-rule="evenodd" d="M1140.16 367.374H1161.98V345.128H1140.16V367.374ZM1160.3 365.663H1141.84V346.839H1160.3V365.663Z" fill="#3F3D56"/>
<path d="M1346 482.631C1308.13 482.808 1277.3 483.374 1277.3 483.374C1277.3 483.374 1313.94 434.263 1345.86 452.458C1377.78 470.653 1414.44 482.734 1414.44 482.734C1414.44 482.734 1383.87 482.454 1346 482.631Z" fill="#F2F2F2"/>
<path d="M1229.11 315.782C1191.24 315.959 1160.42 316.525 1160.42 316.525C1160.42 316.525 1197.06 267.415 1228.98 285.61C1260.89 303.805 1297.56 315.885 1297.56 315.885C1297.56 315.885 1266.98 315.606 1229.11 315.782Z" fill="#F2F2F2"/>
<path d="M915.576 356.981L923.368 334.735C917.395 331.591 829.292 328.392 832.364 322.279C830.805 312.773 841.145 267.501 863.532 247.733L933.663 314.473C939.117 314.473 947.689 319.224 950.026 323.212L973.403 319.224C971.845 325.086 965.633 339.418 964.052 342.565L954.327 362.938C952.852 365.874 940.63 346.834 937.559 347.842C928.208 374.061 918.444 358.491 915.576 356.981Z" fill="white"/>
<path d="M842.608 215.275C845.257 210.022 843.236 203.578 838.094 200.882C832.951 198.186 826.635 200.258 823.986 205.511C821.337 210.764 823.358 217.208 828.5 219.904C833.643 222.601 839.959 220.528 842.608 215.275Z" fill="white"/>
<path d="M928.209 308.91C929.767 310.764 933.04 314.472 933.663 314.472L923.533 334.335L916.521 333.54L928.209 308.91Z" fill="#FF8484"/>
<path d="M925.562 364.789C927.544 365.526 930.274 362.985 931.66 359.113C933.046 355.241 932.563 351.504 930.582 350.767C928.6 350.029 925.87 352.571 924.484 356.443C923.098 360.315 923.581 364.052 925.562 364.789Z" fill="#FFB8B8"/>
</g>
<defs>
<linearGradient id="paint0_linear" x1="1242.09" y1="-175" x2="1242.09" y2="900" gradientUnits="userSpaceOnUse">
<stop stop-color="#001873"/>
<stop offset="1" stop-color="#041143" stop-opacity="0.5"/>
</linearGradient>
<clipPath id="clip0">
<rect width="1440" height="900" fill="white"/>
</clipPath>
</defs>
</svg>
